<svg width="552" height="367" viewBox="0 0 552 367" fill="none" xmlns="http://www.w3.org/2000/svg">
<path d="M263.797 11.7852C280.982 3.92956 299.713 0.142317 318.565 0.711914C337.417 1.28152 355.891 6.19218 372.581 15.0713C389.27 23.9505 403.734 36.5639 414.869 51.9492C426.003 67.3344 433.515 85.0859 436.832 103.851C440.148 122.616 439.182 141.898 434.005 160.229C428.829 178.559 419.58 195.452 406.963 209.621C394.792 223.29 376.695 235.876 359.713 243.149C358.91 243.493 357.972 243.243 357.43 242.539L347.636 229.806C346.849 228.782 347.234 227.253 348.442 226.681C362.569 219.988 381.064 205.648 390.706 194.82C401.094 183.154 408.709 169.245 412.97 154.155C417.232 139.065 418.028 123.19 415.297 107.742C412.567 92.2943 406.382 77.6799 397.214 65.0127C388.047 52.3454 376.137 41.9592 362.394 34.6475C348.651 27.3357 333.437 23.2914 317.912 22.8223C302.386 22.3532 286.96 25.4714 272.809 31.9404C259.464 38.0412 247.585 46.9699 237.971 58.1084C237.245 58.9499 235.987 59.0611 235.151 58.3623L221.309 46.7891C220.479 46.0951 220.37 44.8707 221.061 44.0615C232.811 30.3015 247.393 19.2843 263.797 11.7852Z" fill="url(#paint0_radial_22_39)" stroke="white" stroke-width="1.31111"/>
<path d="M32.0794 17.0444C27.4905 38.0222 37.9793 52.4444 55.0238 59L124.751 67.5222L185.062 76.7L52.2159 61.105C53.649 81.7016 59.0141 90.1891 75.8159 100.438L200.14 114.067L80.1735 104.233C80.4586 123.633 85.2363 132.027 102.462 142.256L219.807 156.022L175.885 153.4C185.468 178.083 202.762 206.5 235.54 224.2C221.13 231.995 211.412 244.328 205.384 258.289C255.261 218.801 319.451 217.644 364.684 265.5C354.195 239.933 336.257 211.029 284.707 208.467C274.142 186.77 273.844 175.324 282.084 156.022C299.896 126.383 328.714 123.181 351.573 144.222C333.816 95.6194 280.773 98.3334 258.484 137.011C256.459 77.4236 222.429 41.3 168.674 34.0889L32.0794 17.0444Z" fill="url(#paint1_radial_22_39)" stroke="white" stroke-width="1.31111"/>
<path d="M256.077 88.0146C282.702 63.8938 319.108 64.8064 341.703 90.0898L342.235 90.6914L342.256 90.7168L342.275 90.7432C347.893 98.6754 351.051 105.975 352.464 113.786C353.875 121.586 353.538 129.859 352.223 139.721L351.912 142.054L350.972 139.896C336.666 107.043 303.676 97.0844 273.797 107.468L264.643 111.392L263.823 111.743L263.733 110.855C263.248 106.104 262.505 102.578 261.292 99.2637C260.077 95.9442 258.381 92.8091 255.958 88.8418L255.676 88.3789L256.077 88.0146Z" fill="url(#paint2_radial_22_39)" stroke="white" stroke-width="1.31111"/>
<mask id="path-4-outside-1_22_39" maskUnits="userSpaceOnUse" x="9" y="287" width="534" height="71" fill="black">
<rect fill="white" x="9" y="287" width="534" height="71"/>
<path d="M71.7188 355V328.141H27.4688V355H10.0781V290.594H27.4688V314.031H71.7188V290.594H89.1094V355H71.7188ZM158.115 355V348.672C155.896 349.891 153.506 350.969 150.943 351.906C148.412 352.844 145.771 353.641 143.021 354.297C140.271 354.953 137.427 355.438 134.49 355.75C131.584 356.094 128.646 356.266 125.677 356.266C122.209 356.266 118.849 355.938 115.599 355.281C112.381 354.625 109.521 353.562 107.021 352.094C104.521 350.625 102.506 348.703 100.974 346.328C99.4744 343.953 98.7244 341.047 98.7244 337.609C98.7244 333.266 99.9119 329.656 102.287 326.781C104.662 323.875 108.287 321.5 113.162 319.656C118.037 317.812 124.193 316.391 131.631 315.391C139.099 314.391 147.927 313.609 158.115 313.047V311.688C158.115 310.625 157.834 309.578 157.271 308.547C156.709 307.484 155.677 306.562 154.177 305.781C152.709 304.969 150.677 304.312 148.084 303.812C145.521 303.312 142.24 303.062 138.24 303.062C135.084 303.062 131.959 303.234 128.865 303.578C125.802 303.891 122.834 304.328 119.959 304.891C117.115 305.453 114.412 306.109 111.849 306.859C109.287 307.609 106.959 308.391 104.865 309.203V293.734C107.052 293.172 109.506 292.625 112.224 292.094C114.943 291.562 117.771 291.109 120.709 290.734C123.646 290.328 126.615 290.016 129.615 289.797C132.615 289.547 135.49 289.422 138.24 289.422C143.646 289.422 148.631 289.875 153.193 290.781C157.756 291.656 161.677 293.031 164.959 294.906C168.271 296.781 170.849 299.156 172.693 302.031C174.568 304.906 175.506 308.328 175.506 312.297V355H158.115ZM158.115 325.609C151.427 325.859 145.74 326.219 141.052 326.688C136.396 327.156 132.521 327.703 129.427 328.328C126.334 328.953 123.896 329.625 122.115 330.344C120.365 331.062 119.052 331.797 118.177 332.547C117.302 333.297 116.756 334.047 116.537 334.797C116.349 335.547 116.256 336.234 116.256 336.859C116.256 337.609 116.459 338.344 116.865 339.062C117.271 339.75 117.974 340.359 118.974 340.891C120.006 341.422 121.365 341.844 123.052 342.156C124.74 342.469 126.865 342.625 129.427 342.625C132.271 342.625 135.052 342.406 137.771 341.969C140.49 341.531 143.068 340.938 145.506 340.188C147.943 339.406 150.224 338.5 152.349 337.469C154.506 336.406 156.427 335.281 158.115 334.094V325.609ZM248.871 305.172C248.402 305.016 247.714 304.812 246.808 304.562C245.933 304.281 244.902 304.016 243.714 303.766C242.527 303.484 241.214 303.25 239.777 303.062C238.371 302.875 236.917 302.781 235.417 302.781C232.292 302.781 229.371 303.172 226.652 303.953C223.964 304.703 221.449 305.719 219.105 307C216.761 308.25 214.574 309.688 212.542 311.312C210.542 312.906 208.699 314.547 207.011 316.234V355H189.621V290.594H207.011V301.047C209.105 299.484 211.246 297.984 213.433 296.547C215.652 295.078 217.949 293.781 220.324 292.656C222.73 291.531 225.261 290.641 227.917 289.984C230.574 289.297 233.386 288.953 236.355 288.953C237.48 288.953 238.621 289.016 239.777 289.141C240.964 289.234 242.105 289.359 243.199 289.516C244.324 289.672 245.371 289.844 246.339 290.031C247.308 290.219 248.152 290.406 248.871 290.594V305.172ZM254.173 355V290.594H271.564V355H254.173ZM359.46 337.234C359.46 339.734 359.132 341.906 358.476 343.75C357.819 345.594 356.897 347.188 355.71 348.531C354.554 349.844 353.147 350.922 351.491 351.766C349.866 352.578 348.054 353.234 346.054 353.734C344.085 354.203 341.976 354.531 339.726 354.719C337.476 354.906 335.147 355 332.741 355H286.007V290.594H331.897C333.741 290.594 335.585 290.672 337.429 290.828C339.304 290.984 341.085 291.281 342.772 291.719C344.46 292.125 346.022 292.703 347.46 293.453C348.929 294.203 350.194 295.188 351.257 296.406C352.351 297.625 353.194 299.094 353.788 300.812C354.413 302.531 354.726 304.562 354.726 306.906C354.726 311.094 353.694 314.422 351.632 316.891C349.569 319.328 346.319 320.953 341.882 321.766C345.007 321.984 347.679 322.469 349.897 323.219C352.147 323.938 353.976 324.938 355.382 326.219C356.788 327.469 357.819 329.016 358.476 330.859C359.132 332.672 359.46 334.797 359.46 337.234ZM337.757 309.672C337.757 308.859 337.632 308.094 337.382 307.375C337.132 306.625 336.679 305.969 336.022 305.406C335.366 304.844 334.476 304.391 333.351 304.047C332.226 303.703 330.788 303.531 329.038 303.531H303.397V315.625H329.038C330.788 315.625 332.226 315.469 333.351 315.156C334.476 314.844 335.366 314.422 336.022 313.891C336.679 313.359 337.132 312.734 337.382 312.016C337.632 311.266 337.757 310.484 337.757 309.672ZM341.788 335.219C341.788 333.75 341.538 332.578 341.038 331.703C340.538 330.797 339.757 330.109 338.694 329.641C337.632 329.141 336.257 328.812 334.569 328.656C332.882 328.5 330.866 328.422 328.522 328.422H303.397V342.062H328.522C330.866 342.062 332.882 341.984 334.569 341.828C336.257 341.672 337.632 341.344 338.694 340.844C339.757 340.344 340.538 339.656 341.038 338.781C341.538 337.875 341.788 336.688 341.788 335.219ZM452.934 322.844C452.934 328.375 451.919 333.266 449.888 337.516C447.856 341.734 444.95 345.266 441.169 348.109C437.388 350.953 432.794 353.109 427.388 354.578C422.013 356.016 415.966 356.734 409.247 356.734C402.528 356.734 396.45 356.016 391.013 354.578C385.606 353.109 380.997 350.953 377.184 348.109C373.372 345.266 370.434 341.734 368.372 337.516C366.309 333.266 365.278 328.375 365.278 322.844C365.278 317.312 366.309 312.438 368.372 308.219C370.434 303.969 373.372 300.422 377.184 297.578C380.997 294.734 385.606 292.594 391.013 291.156C396.45 289.688 402.528 288.953 409.247 288.953C415.966 288.953 422.013 289.688 427.388 291.156C432.794 292.594 437.388 294.734 441.169 297.578C444.95 300.422 447.856 303.969 449.888 308.219C451.919 312.438 452.934 317.312 452.934 322.844ZM435.356 322.844C435.356 320.438 434.966 318.047 434.184 315.672C433.434 313.266 432.075 311.109 430.106 309.203C428.169 307.297 425.513 305.75 422.138 304.562C418.763 303.375 414.466 302.781 409.247 302.781C405.747 302.781 402.669 303.062 400.013 303.625C397.356 304.156 395.059 304.906 393.122 305.875C391.184 306.844 389.559 307.984 388.247 309.297C386.934 310.578 385.888 311.969 385.106 313.469C384.325 314.938 383.763 316.484 383.419 318.109C383.106 319.703 382.95 321.281 382.95 322.844C382.95 324.438 383.106 326.047 383.419 327.672C383.763 329.297 384.325 330.859 385.106 332.359C385.888 333.828 386.934 335.203 388.247 336.484C389.559 337.766 391.184 338.891 393.122 339.859C395.059 340.797 397.356 341.547 400.013 342.109C402.669 342.641 405.747 342.906 409.247 342.906C414.466 342.906 418.763 342.312 422.138 341.125C425.513 339.938 428.169 338.391 430.106 336.484C432.075 334.578 433.434 332.438 434.184 330.062C434.966 327.656 435.356 325.25 435.356 322.844ZM524.378 355V318.906C524.378 316.5 524.174 314.328 523.768 312.391C523.362 310.422 522.596 308.75 521.471 307.375C520.378 305.969 518.831 304.891 516.831 304.141C514.862 303.359 512.315 302.969 509.19 302.969C506.815 302.969 504.315 303.297 501.69 303.953C499.096 304.578 496.518 305.422 493.956 306.484C491.393 307.547 488.94 308.781 486.596 310.188C484.284 311.594 482.221 313.062 480.409 314.594V355H463.018V290.594H480.409V299.406C482.596 298.156 484.924 296.922 487.393 295.703C489.862 294.453 492.487 293.328 495.268 292.328C498.049 291.328 501.003 290.516 504.128 289.891C507.253 289.266 510.549 288.953 514.018 288.953C518.362 288.953 522.237 289.484 525.643 290.547C529.081 291.578 531.987 293.062 534.362 295C536.737 296.906 538.549 299.234 539.799 301.984C541.081 304.703 541.721 307.75 541.721 311.125V355H524.378Z"/>
</mask>
<path d="M71.7188 355V328.141H27.4688V355H10.0781V290.594H27.4688V314.031H71.7188V290.594H89.1094V355H71.7188ZM158.115 355V348.672C155.896 349.891 153.506 350.969 150.943 351.906C148.412 352.844 145.771 353.641 143.021 354.297C140.271 354.953 137.427 355.438 134.49 355.75C131.584 356.094 128.646 356.266 125.677 356.266C122.209 356.266 118.849 355.938 115.599 355.281C112.381 354.625 109.521 353.562 107.021 352.094C104.521 350.625 102.506 348.703 100.974 346.328C99.4744 343.953 98.7244 341.047 98.7244 337.609C98.7244 333.266 99.9119 329.656 102.287 326.781C104.662 323.875 108.287 321.5 113.162 319.656C118.037 317.812 124.193 316.391 131.631 315.391C139.099 314.391 147.927 313.609 158.115 313.047V311.688C158.115 310.625 157.834 309.578 157.271 308.547C156.709 307.484 155.677 306.562 154.177 305.781C152.709 304.969 150.677 304.312 148.084 303.812C145.521 303.312 142.24 303.062 138.24 303.062C135.084 303.062 131.959 303.234 128.865 303.578C125.802 303.891 122.834 304.328 119.959 304.891C117.115 305.453 114.412 306.109 111.849 306.859C109.287 307.609 106.959 308.391 104.865 309.203V293.734C107.052 293.172 109.506 292.625 112.224 292.094C114.943 291.562 117.771 291.109 120.709 290.734C123.646 290.328 126.615 290.016 129.615 289.797C132.615 289.547 135.49 289.422 138.24 289.422C143.646 289.422 148.631 289.875 153.193 290.781C157.756 291.656 161.677 293.031 164.959 294.906C168.271 296.781 170.849 299.156 172.693 302.031C174.568 304.906 175.506 308.328 175.506 312.297V355H158.115ZM158.115 325.609C151.427 325.859 145.74 326.219 141.052 326.688C136.396 327.156 132.521 327.703 129.427 328.328C126.334 328.953 123.896 329.625 122.115 330.344C120.365 331.062 119.052 331.797 118.177 332.547C117.302 333.297 116.756 334.047 116.537 334.797C116.349 335.547 116.256 336.234 116.256 336.859C116.256 337.609 116.459 338.344 116.865 339.062C117.271 339.75 117.974 340.359 118.974 340.891C120.006 341.422 121.365 341.844 123.052 342.156C124.74 342.469 126.865 342.625 129.427 342.625C132.271 342.625 135.052 342.406 137.771 341.969C140.49 341.531 143.068 340.938 145.506 340.188C147.943 339.406 150.224 338.5 152.349 337.469C154.506 336.406 156.427 335.281 158.115 334.094V325.609ZM248.871 305.172C248.402 305.016 247.714 304.812 246.808 304.562C245.933 304.281 244.902 304.016 243.714 303.766C242.527 303.484 241.214 303.25 239.777 303.062C238.371 302.875 236.917 302.781 235.417 302.781C232.292 302.781 229.371 303.172 226.652 303.953C223.964 304.703 221.449 305.719 219.105 307C216.761 308.25 214.574 309.688 212.542 311.312C210.542 312.906 208.699 314.547 207.011 316.234V355H189.621V290.594H207.011V301.047C209.105 299.484 211.246 297.984 213.433 296.547C215.652 295.078 217.949 293.781 220.324 292.656C222.73 291.531 225.261 290.641 227.917 289.984C230.574 289.297 233.386 288.953 236.355 288.953C237.48 288.953 238.621 289.016 239.777 289.141C240.964 289.234 242.105 289.359 243.199 289.516C244.324 289.672 245.371 289.844 246.339 290.031C247.308 290.219 248.152 290.406 248.871 290.594V305.172ZM254.173 355V290.594H271.564V355H254.173ZM359.46 337.234C359.46 339.734 359.132 341.906 358.476 343.75C357.819 345.594 356.897 347.188 355.71 348.531C354.554 349.844 353.147 350.922 351.491 351.766C349.866 352.578 348.054 353.234 346.054 353.734C344.085 354.203 341.976 354.531 339.726 354.719C337.476 354.906 335.147 355 332.741 355H286.007V290.594H331.897C333.741 290.594 335.585 290.672 337.429 290.828C339.304 290.984 341.085 291.281 342.772 291.719C344.46 292.125 346.022 292.703 347.46 293.453C348.929 294.203 350.194 295.188 351.257 296.406C352.351 297.625 353.194 299.094 353.788 300.812C354.413 302.531 354.726 304.562 354.726 306.906C354.726 311.094 353.694 314.422 351.632 316.891C349.569 319.328 346.319 320.953 341.882 321.766C345.007 321.984 347.679 322.469 349.897 323.219C352.147 323.938 353.976 324.938 355.382 326.219C356.788 327.469 357.819 329.016 358.476 330.859C359.132 332.672 359.46 334.797 359.46 337.234ZM337.757 309.672C337.757 308.859 337.632 308.094 337.382 307.375C337.132 306.625 336.679 305.969 336.022 305.406C335.366 304.844 334.476 304.391 333.351 304.047C332.226 303.703 330.788 303.531 329.038 303.531H303.397V315.625H329.038C330.788 315.625 332.226 315.469 333.351 315.156C334.476 314.844 335.366 314.422 336.022 313.891C336.679 313.359 337.132 312.734 337.382 312.016C337.632 311.266 337.757 310.484 337.757 309.672ZM341.788 335.219C341.788 333.75 341.538 332.578 341.038 331.703C340.538 330.797 339.757 330.109 338.694 329.641C337.632 329.141 336.257 328.812 334.569 328.656C332.882 328.5 330.866 328.422 328.522 328.422H303.397V342.062H328.522C330.866 342.062 332.882 341.984 334.569 341.828C336.257 341.672 337.632 341.344 338.694 340.844C339.757 340.344 340.538 339.656 341.038 338.781C341.538 337.875 341.788 336.688 341.788 335.219ZM452.934 322.844C452.934 328.375 451.919 333.266 449.888 337.516C447.856 341.734 444.95 345.266 441.169 348.109C437.388 350.953 432.794 353.109 427.388 354.578C422.013 356.016 415.966 356.734 409.247 356.734C402.528 356.734 396.45 356.016 391.013 354.578C385.606 353.109 380.997 350.953 377.184 348.109C373.372 345.266 370.434 341.734 368.372 337.516C366.309 333.266 365.278 328.375 365.278 322.844C365.278 317.312 366.309 312.438 368.372 308.219C370.434 303.969 373.372 300.422 377.184 297.578C380.997 294.734 385.606 292.594 391.013 291.156C396.45 289.688 402.528 288.953 409.247 288.953C415.966 288.953 422.013 289.688 427.388 291.156C432.794 292.594 437.388 294.734 441.169 297.578C444.95 300.422 447.856 303.969 449.888 308.219C451.919 312.438 452.934 317.312 452.934 322.844ZM435.356 322.844C435.356 320.438 434.966 318.047 434.184 315.672C433.434 313.266 432.075 311.109 430.106 309.203C428.169 307.297 425.513 305.75 422.138 304.562C418.763 303.375 414.466 302.781 409.247 302.781C405.747 302.781 402.669 303.062 400.013 303.625C397.356 304.156 395.059 304.906 393.122 305.875C391.184 306.844 389.559 307.984 388.247 309.297C386.934 310.578 385.888 311.969 385.106 313.469C384.325 314.938 383.763 316.484 383.419 318.109C383.106 319.703 382.95 321.281 382.95 322.844C382.95 324.438 383.106 326.047 383.419 327.672C383.763 329.297 384.325 330.859 385.106 332.359C385.888 333.828 386.934 335.203 388.247 336.484C389.559 337.766 391.184 338.891 393.122 339.859C395.059 340.797 397.356 341.547 400.013 342.109C402.669 342.641 405.747 342.906 409.247 342.906C414.466 342.906 418.763 342.312 422.138 341.125C425.513 339.938 428.169 338.391 430.106 336.484C432.075 334.578 433.434 332.438 434.184 330.062C434.966 327.656 435.356 325.25 435.356 322.844ZM524.378 355V318.906C524.378 316.5 524.174 314.328 523.768 312.391C523.362 310.422 522.596 308.75 521.471 307.375C520.378 305.969 518.831 304.891 516.831 304.141C514.862 303.359 512.315 302.969 509.19 302.969C506.815 302.969 504.315 303.297 501.69 303.953C499.096 304.578 496.518 305.422 493.956 306.484C491.393 307.547 488.94 308.781 486.596 310.188C484.284 311.594 482.221 313.062 480.409 314.594V355H463.018V290.594H480.409V299.406C482.596 298.156 484.924 296.922 487.393 295.703C489.862 294.453 492.487 293.328 495.268 292.328C498.049 291.328 501.003 290.516 504.128 289.891C507.253 289.266 510.549 288.953 514.018 288.953C518.362 288.953 522.237 289.484 525.643 290.547C529.081 291.578 531.987 293.062 534.362 295C536.737 296.906 538.549 299.234 539.799 301.984C541.081 304.703 541.721 307.75 541.721 311.125V355H524.378Z" fill="#203537"/>
<path d="M71.7188 355H70.7188V356H71.7188V355ZM71.7188 328.141H72.7188V327.141H71.7188V328.141ZM27.4688 328.141V327.141H26.4688V328.141H27.4688ZM27.4688 355V356H28.4688V355H27.4688ZM10.0781 355H9.07812V356H10.0781V355ZM10.0781 290.594V289.594H9.07812V290.594H10.0781ZM27.4688 290.594H28.4688V289.594H27.4688V290.594ZM27.4688 314.031H26.4688V315.031H27.4688V314.031ZM71.7188 314.031V315.031H72.7188V314.031H71.7188ZM71.7188 290.594V289.594H70.7188V290.594H71.7188ZM89.1094 290.594H90.1094V289.594H89.1094V290.594ZM89.1094 355V356H90.1094V355H89.1094ZM71.7188 355H72.7188V328.141H71.7188H70.7188V355H71.7188ZM71.7188 328.141V327.141H27.4688V328.141V329.141H71.7188V328.141ZM27.4688 328.141H26.4688V355H27.4688H28.4688V328.141H27.4688ZM27.4688 355V354H10.0781V355V356H27.4688V355ZM10.0781 355H11.0781V290.594H10.0781H9.07812V355H10.0781ZM10.0781 290.594V291.594H27.4688V290.594V289.594H10.0781V290.594ZM27.4688 290.594H26.4688V314.031H27.4688H28.4688V290.594H27.4688ZM27.4688 314.031V315.031H71.7188V314.031V313.031H27.4688V314.031ZM71.7188 314.031H72.7188V290.594H71.7188H70.7188V314.031H71.7188ZM71.7188 290.594V291.594H89.1094V290.594V289.594H71.7188V290.594ZM89.1094 290.594H88.1094V355H89.1094H90.1094V290.594H89.1094ZM89.1094 355V354H71.7188V355V356H89.1094V355ZM158.115 355H157.115V356H158.115V355ZM158.115 348.672H159.115V346.982L157.634 347.795L158.115 348.672ZM150.943 351.906L150.6 350.967L150.596 350.969L150.943 351.906ZM134.49 355.75L134.384 354.756L134.373 354.757L134.49 355.75ZM115.599 355.281L115.4 356.261L115.401 356.261L115.599 355.281ZM100.974 346.328L100.129 346.862L100.134 346.87L100.974 346.328ZM102.287 326.781L103.058 327.418L103.061 327.414L102.287 326.781ZM131.631 315.391L131.498 314.399L131.497 314.4L131.631 315.391ZM158.115 313.047L158.17 314.045L159.115 313.993V313.047H158.115ZM157.271 308.547L156.387 309.015L156.393 309.026L157.271 308.547ZM154.177 305.781L153.693 306.656L153.704 306.662L153.716 306.668L154.177 305.781ZM148.084 303.812L147.892 304.794L147.894 304.794L148.084 303.812ZM128.865 303.578L128.967 304.573L128.975 304.572L128.865 303.578ZM119.959 304.891L119.767 303.909L119.765 303.91L119.959 304.891ZM104.865 309.203H103.865V310.664L105.227 310.135L104.865 309.203ZM104.865 293.734L104.616 292.766L103.865 292.959V293.734H104.865ZM120.709 290.734L120.835 291.726L120.846 291.725L120.709 290.734ZM129.615 289.797L129.688 290.794L129.698 290.793L129.615 289.797ZM153.193 290.781L152.998 291.762L153.005 291.763L153.193 290.781ZM164.959 294.906L164.463 295.775L164.466 295.777L164.959 294.906ZM172.693 302.031L171.851 302.571L171.856 302.578L172.693 302.031ZM175.506 355V356H176.506V355H175.506ZM158.115 325.609H159.115V324.571L158.078 324.61L158.115 325.609ZM141.052 326.688L140.953 325.692L140.952 325.693L141.052 326.688ZM122.115 330.344L121.741 329.416L121.735 329.419L122.115 330.344ZM116.537 334.797L115.577 334.517L115.571 334.536L115.567 334.554L116.537 334.797ZM116.865 339.062L115.994 339.555L115.999 339.563L116.004 339.571L116.865 339.062ZM118.974 340.891L118.505 341.774L118.516 341.78L118.974 340.891ZM145.506 340.188L145.8 341.143L145.811 341.14L145.506 340.188ZM152.349 337.469L152.786 338.368L152.791 338.366L152.349 337.469ZM158.115 334.094L158.69 334.912L159.115 334.613V334.094H158.115ZM158.115 355H159.115V348.672H158.115H157.115V355H158.115ZM158.115 348.672L157.634 347.795C155.462 348.988 153.118 350.046 150.6 350.967L150.943 351.906L151.287 352.845C153.893 351.892 156.33 350.793 158.596 349.548L158.115 348.672ZM150.943 351.906L150.596 350.969C148.104 351.891 145.502 352.677 142.789 353.324L143.021 354.297L143.253 355.27C146.041 354.604 148.72 353.796 151.29 352.844L150.943 351.906ZM143.021 354.297L142.789 353.324C140.083 353.97 137.281 354.447 134.384 354.756L134.49 355.75L134.596 356.744C137.574 356.428 140.46 355.936 143.253 355.27L143.021 354.297ZM134.49 355.75L134.373 354.757C131.506 355.096 128.608 355.266 125.677 355.266V356.266V357.266C128.685 357.266 131.662 357.092 134.607 356.743L134.49 355.75ZM125.677 356.266V355.266C122.272 355.266 118.979 354.944 115.797 354.301L115.599 355.281L115.401 356.261C118.72 356.931 122.145 357.266 125.677 357.266V356.266ZM115.599 355.281L115.799 354.301C112.674 353.664 109.921 352.638 107.528 351.232L107.021 352.094L106.515 352.956C109.121 354.487 112.087 355.586 115.4 356.261L115.599 355.281ZM107.021 352.094L107.528 351.232C105.159 349.84 103.259 348.026 101.815 345.786L100.974 346.328L100.134 346.87C101.752 349.38 103.884 351.41 106.515 352.956L107.021 352.094ZM100.974 346.328L101.82 345.794C100.441 343.611 99.7244 340.9 99.7244 337.609H98.7244H97.7244C97.7244 341.193 98.5075 344.295 100.129 346.862L100.974 346.328ZM98.7244 337.609H99.7244C99.7244 333.458 100.855 330.085 103.058 327.418L102.287 326.781L101.516 326.144C98.9691 329.227 97.7244 333.073 97.7244 337.609H98.7244ZM102.287 326.781L103.061 327.414C105.29 324.687 108.744 322.396 113.516 320.592L113.162 319.656L112.808 318.721C107.83 320.604 104.034 323.063 101.513 326.148L102.287 326.781ZM113.162 319.656L113.516 320.592C118.296 318.784 124.372 317.376 131.764 316.382L131.631 315.391L131.497 314.4C124.014 315.406 117.778 316.841 112.808 318.721L113.162 319.656ZM131.631 315.391L131.763 316.382C139.199 315.386 148 314.607 158.17 314.045L158.115 313.047L158.06 312.048C147.855 312.612 139 313.395 131.498 314.399L131.631 315.391ZM158.115 313.047H159.115V311.688H158.115H157.115V313.047H158.115ZM158.115 311.688H159.115C159.115 310.441 158.783 309.23 158.149 308.068L157.271 308.547L156.393 309.026C156.884 309.926 157.115 310.809 157.115 311.688H158.115ZM157.271 308.547L158.155 308.079C157.466 306.778 156.249 305.732 154.639 304.894L154.177 305.781L153.716 306.668C155.106 307.393 155.951 308.191 156.387 309.015L157.271 308.547ZM154.177 305.781L154.662 304.906C153.064 304.022 150.918 303.34 148.273 302.831L148.084 303.812L147.894 304.794C150.437 305.285 152.354 305.915 153.693 306.656L154.177 305.781ZM148.084 303.812L148.275 302.831C145.626 302.314 142.274 302.062 138.24 302.062V303.062V304.062C142.206 304.062 145.417 304.311 147.892 304.794L148.084 303.812ZM138.24 303.062V302.062C135.047 302.062 131.885 302.236 128.755 302.584L128.865 303.578L128.975 304.572C132.032 304.232 135.12 304.062 138.24 304.062V303.062ZM128.865 303.578L128.763 302.583C125.672 302.899 122.673 303.341 119.767 303.909L119.959 304.891L120.151 305.872C122.994 305.316 125.933 304.883 128.967 304.573L128.865 303.578ZM119.959 304.891L119.765 303.91C116.894 304.477 114.162 305.141 111.568 305.9L111.849 306.859L112.13 307.819C114.662 307.078 117.336 306.429 120.153 305.872L119.959 304.891ZM111.849 306.859L111.568 305.9C108.984 306.656 106.628 307.446 104.503 308.271L104.865 309.203L105.227 310.135C107.29 309.335 109.59 308.563 112.13 307.819L111.849 306.859ZM104.865 309.203H105.865V293.734H104.865H103.865V309.203H104.865ZM104.865 293.734L105.114 294.703C107.279 294.146 109.713 293.603 112.416 293.075L112.224 292.094L112.033 291.112C109.299 291.647 106.826 292.198 104.616 292.766L104.865 293.734ZM112.224 292.094L112.416 293.075C115.112 292.548 117.918 292.099 120.835 291.726L120.709 290.734L120.582 289.742C117.624 290.12 114.774 290.577 112.033 291.112L112.224 292.094ZM120.709 290.734L120.846 291.725C123.762 291.322 126.709 291.011 129.688 290.794L129.615 289.797L129.542 288.8C126.521 289.02 123.531 289.335 120.572 289.744L120.709 290.734ZM129.615 289.797L129.698 290.793C132.673 290.546 135.52 290.422 138.24 290.422V289.422V288.422C135.46 288.422 132.557 288.548 129.532 288.8L129.615 289.797ZM138.24 289.422V290.422C143.591 290.422 148.509 290.87 152.998 291.762L153.193 290.781L153.388 289.8C148.752 288.88 143.701 288.422 138.24 288.422V289.422ZM153.193 290.781L153.005 291.763C157.483 292.622 161.296 293.965 164.463 295.774L164.959 294.906L165.455 294.038C162.059 292.097 158.028 290.69 153.381 289.799L153.193 290.781ZM164.959 294.906L164.466 295.777C167.654 297.581 170.105 299.848 171.851 302.571L172.693 302.031L173.535 301.491C171.594 298.464 168.889 295.982 165.451 294.036L164.959 294.906ZM172.693 302.031L171.856 302.578C173.609 305.266 174.506 308.491 174.506 312.297H175.506H176.506C176.506 308.165 175.527 304.547 173.531 301.485L172.693 302.031ZM175.506 312.297H174.506V355H175.506H176.506V312.297H175.506ZM175.506 355V354H158.115V355V356H175.506V355ZM158.115 325.609L158.078 324.61C151.377 324.861 145.668 325.221 140.953 325.692L141.052 326.688L141.152 327.683C145.812 327.217 151.478 326.858 158.152 326.609L158.115 325.609ZM141.052 326.688L140.952 325.693C136.277 326.163 132.367 326.714 129.229 327.348L129.427 328.328L129.626 329.308C132.676 328.692 136.515 328.149 141.153 327.682L141.052 326.688ZM129.427 328.328L129.229 327.348C126.109 327.978 123.604 328.665 121.741 329.416L122.115 330.344L122.489 331.271C124.189 330.585 126.559 329.928 129.626 329.308L129.427 328.328ZM122.115 330.344L121.735 329.419C119.941 330.155 118.518 330.938 117.527 331.788L118.177 332.547L118.828 333.306C119.587 332.656 120.789 331.97 122.495 331.269L122.115 330.344ZM118.177 332.547L117.527 331.788C116.57 332.607 115.87 333.512 115.577 334.517L116.537 334.797L117.497 335.077C117.641 334.582 118.035 333.986 118.828 333.306L118.177 332.547ZM116.537 334.797L115.567 334.554C115.364 335.366 115.256 336.136 115.256 336.859H116.256H117.256C117.256 336.333 117.335 335.728 117.507 335.039L116.537 334.797ZM116.256 336.859H115.256C115.256 337.799 115.512 338.701 115.994 339.555L116.865 339.062L117.736 338.57C117.405 337.986 117.256 337.42 117.256 336.859H116.256ZM116.865 339.062L116.004 339.571C116.535 340.47 117.407 341.19 118.505 341.774L118.974 340.891L119.444 340.008C118.542 339.528 118.007 339.03 117.726 338.554L116.865 339.062ZM118.974 340.891L118.516 341.78C119.665 342.371 121.128 342.817 122.87 343.14L123.052 342.156L123.235 341.173C121.602 340.871 120.346 340.472 119.432 340.002L118.974 340.891ZM123.052 342.156L122.87 343.14C124.64 343.467 126.831 343.625 129.427 343.625V342.625V341.625C126.899 341.625 124.84 341.47 123.235 341.173L123.052 342.156ZM129.427 342.625V343.625C132.323 343.625 135.157 343.402 137.93 342.956L137.771 341.969L137.612 340.981C134.948 341.41 132.22 341.625 129.427 341.625V342.625ZM137.771 341.969L137.93 342.956C140.691 342.512 143.315 341.908 145.8 341.143L145.506 340.188L145.212 339.232C142.822 339.967 140.289 340.551 137.612 340.981L137.771 341.969ZM145.506 340.188L145.811 341.14C148.29 340.345 150.615 339.422 152.786 338.368L152.349 337.469L151.913 336.569C149.834 337.578 147.597 338.467 145.2 339.235L145.506 340.188ZM152.349 337.469L152.791 338.366C154.987 337.284 156.954 336.133 158.69 334.912L158.115 334.094L157.54 333.276C155.901 334.429 154.025 335.529 151.907 336.572L152.349 337.469ZM158.115 334.094H159.115V325.609H158.115H157.115V334.094H158.115ZM248.871 305.172L248.554 306.121L249.871 306.559V305.172H248.871ZM246.808 304.562L246.502 305.515L246.522 305.521L246.542 305.526L246.808 304.562ZM243.714 303.766L243.484 304.739L243.496 304.742L243.508 304.744L243.714 303.766ZM239.777 303.062L239.645 304.054L239.648 304.054L239.777 303.062ZM226.652 303.953L226.921 304.916L226.928 304.914L226.652 303.953ZM219.105 307L219.576 307.882L219.585 307.877L219.105 307ZM212.542 311.312L213.166 312.095L213.167 312.093L212.542 311.312ZM207.011 316.234L206.304 315.527L206.011 315.82V316.234H207.011ZM207.011 355V356H208.011V355H207.011ZM189.621 355H188.621V356H189.621V355ZM189.621 290.594V289.594H188.621V290.594H189.621ZM207.011 290.594H208.011V289.594H207.011V290.594ZM207.011 301.047H206.011V303.041L207.609 301.848L207.011 301.047ZM213.433 296.547L213.982 297.383L213.985 297.381L213.433 296.547ZM220.324 292.656L219.9 291.75L219.896 291.753L220.324 292.656ZM227.917 289.984L228.157 290.955L228.168 290.952L227.917 289.984ZM239.777 289.141L239.669 290.135L239.684 290.136L239.698 290.138L239.777 289.141ZM243.199 289.516L243.057 290.506L243.061 290.506L243.199 289.516ZM248.871 290.594H249.871V289.821L249.123 289.626L248.871 290.594ZM248.871 305.172L249.187 304.223C248.693 304.058 247.985 303.85 247.074 303.599L246.808 304.562L246.542 305.526C247.444 305.775 248.111 305.973 248.554 306.121L248.871 305.172ZM246.808 304.562L247.114 303.61C246.198 303.316 245.132 303.042 243.92 302.787L243.714 303.766L243.508 304.744C244.672 304.989 245.668 305.247 246.502 305.515L246.808 304.562ZM243.714 303.766L243.945 302.793C242.718 302.502 241.372 302.262 239.906 302.071L239.777 303.062L239.648 304.054C241.057 304.238 242.335 304.467 243.484 304.739L243.714 303.766ZM239.777 303.062L239.909 302.071C238.457 301.878 236.959 301.781 235.417 301.781V302.781V303.781C236.876 303.781 238.285 303.872 239.645 304.054L239.777 303.062ZM235.417 302.781V301.781C232.209 301.781 229.193 302.182 226.376 302.992L226.652 303.953L226.928 304.914C229.548 304.161 232.376 303.781 235.417 303.781V302.781ZM226.652 303.953L226.383 302.99C223.626 303.759 221.039 304.803 218.625 306.123L219.105 307L219.585 307.877C221.859 306.634 224.303 305.647 226.921 304.916L226.652 303.953ZM219.105 307L218.634 306.118C216.237 307.396 213.998 308.867 211.918 310.532L212.542 311.312L213.167 312.093C215.149 310.508 217.285 309.104 219.576 307.882L219.105 307ZM212.542 311.312L211.919 310.53C209.892 312.146 208.02 313.811 206.304 315.527L207.011 316.234L207.718 316.941C209.378 315.282 211.193 313.667 213.166 312.095L212.542 311.312ZM207.011 316.234H206.011V355H207.011H208.011V316.234H207.011ZM207.011 355V354H189.621V355V356H207.011V355ZM189.621 355H190.621V290.594H189.621H188.621V355H189.621ZM189.621 290.594V291.594H207.011V290.594V289.594H189.621V290.594ZM207.011 290.594H206.011V301.047H207.011H208.011V290.594H207.011ZM207.011 301.047L207.609 301.848C209.687 300.298 211.811 298.809 213.982 297.383L213.433 296.547L212.884 295.711C210.68 297.16 208.523 298.671 206.413 300.245L207.011 301.047ZM213.433 296.547L213.985 297.381C216.165 295.938 218.42 294.664 220.752 293.56L220.324 292.656L219.896 291.753C217.477 292.898 215.139 294.218 212.881 295.713L213.433 296.547ZM220.324 292.656L220.747 293.562C223.093 292.466 225.562 291.596 228.157 290.955L227.917 289.984L227.678 289.014C224.96 289.685 222.367 290.597 219.9 291.75L220.324 292.656ZM227.917 289.984L228.168 290.952C230.736 290.288 233.464 289.953 236.355 289.953V288.953V287.953C233.309 287.953 230.411 288.306 227.667 289.016L227.917 289.984ZM236.355 288.953V289.953C237.443 289.953 238.548 290.014 239.669 290.135L239.777 289.141L239.884 288.146C238.694 288.018 237.517 287.953 236.355 287.953V288.953ZM239.777 289.141L239.698 290.138C240.866 290.23 241.986 290.353 243.057 290.506L243.199 289.516L243.34 288.526C242.224 288.366 241.062 288.239 239.856 288.144L239.777 289.141ZM243.199 289.516L243.061 290.506C244.171 290.66 245.2 290.829 246.149 291.013L246.339 290.031L246.529 289.049C245.541 288.858 244.476 288.683 243.336 288.525L243.199 289.516ZM246.339 290.031L246.149 291.013C247.103 291.198 247.926 291.381 248.618 291.561L248.871 290.594L249.123 289.626C248.378 289.432 247.513 289.24 246.529 289.049L246.339 290.031ZM248.871 290.594H247.871V305.172H248.871H249.871V290.594H248.871ZM254.173 355H253.173V356H254.173V355ZM254.173 290.594V289.594H253.173V290.594H254.173ZM271.564 290.594H272.564V289.594H271.564V290.594ZM271.564 355V356H272.564V355H271.564ZM254.173 355H255.173V290.594H254.173H253.173V355H254.173ZM254.173 290.594V291.594H271.564V290.594V289.594H254.173V290.594ZM271.564 290.594H270.564V355H271.564H272.564V290.594H271.564ZM271.564 355V354H254.173V355V356H271.564V355ZM355.71 348.531L354.961 347.869L354.96 347.87L355.71 348.531ZM351.491 351.766L351.938 352.66L351.945 352.657L351.491 351.766ZM346.054 353.734L346.285 354.707L346.296 354.705L346.054 353.734ZM286.007 355H285.007V356H286.007V355ZM286.007 290.594V289.594H285.007V290.594H286.007ZM337.429 290.828L337.344 291.825L337.346 291.825L337.429 290.828ZM342.772 291.719L342.522 292.687L342.53 292.689L342.538 292.691L342.772 291.719ZM347.46 293.453L346.997 294.34L347.005 294.344L347.46 293.453ZM351.257 296.406L350.503 297.063L350.508 297.069L350.513 297.074L351.257 296.406ZM353.788 300.812L352.843 301.139L352.846 301.147L352.848 301.154L353.788 300.812ZM351.632 316.891L352.395 317.537L352.399 317.532L351.632 316.891ZM341.882 321.766L341.702 320.782L341.812 322.763L341.882 321.766ZM349.897 323.219L349.577 324.166L349.585 324.169L349.593 324.171L349.897 323.219ZM355.382 326.219L354.708 326.958L354.717 326.966L355.382 326.219ZM358.476 330.859L357.534 331.195L357.535 331.2L358.476 330.859ZM337.382 307.375L336.433 307.691L336.437 307.704L337.382 307.375ZM303.397 303.531V302.531H302.397V303.531H303.397ZM303.397 315.625H302.397V316.625H303.397V315.625ZM337.382 312.016L338.326 312.344L338.331 312.332L337.382 312.016ZM341.038 331.703L340.163 332.186L340.166 332.193L340.17 332.199L341.038 331.703ZM338.694 329.641L338.269 330.545L338.28 330.551L338.291 330.556L338.694 329.641ZM303.397 328.422V327.422H302.397V328.422H303.397ZM303.397 342.062H302.397V343.062H303.397V342.062ZM341.038 338.781L341.906 339.277L341.91 339.271L341.914 339.264L341.038 338.781ZM359.46 337.234H358.46C358.46 339.65 358.142 341.704 357.534 343.415L358.476 343.75L359.418 344.085C360.121 342.109 360.46 339.818 360.46 337.234H359.46ZM358.476 343.75L357.534 343.415C356.916 345.149 356.056 346.629 354.961 347.869L355.71 348.531L356.459 349.193C357.739 347.746 358.723 346.038 359.418 344.085L358.476 343.75ZM355.71 348.531L354.96 347.87C353.892 349.082 352.588 350.084 351.037 350.875L351.491 351.766L351.945 352.657C353.707 351.759 355.216 350.605 356.46 349.192L355.71 348.531ZM351.491 351.766L351.044 350.871C349.492 351.647 347.75 352.28 345.811 352.764L346.054 353.734L346.296 354.705C348.358 354.189 350.24 353.509 351.938 352.66L351.491 351.766ZM346.054 353.734L345.822 352.762C343.907 353.217 341.848 353.538 339.643 353.722L339.726 354.719L339.809 355.715C342.103 355.524 344.263 355.189 346.285 354.707L346.054 353.734ZM339.726 354.719L339.643 353.722C337.422 353.907 335.122 354 332.741 354V355V356C335.173 356 337.529 355.905 339.809 355.715L339.726 354.719ZM332.741 355V354H286.007V355V356H332.741V355ZM286.007 355H287.007V290.594H286.007H285.007V355H286.007ZM286.007 290.594V291.594H331.897V290.594V289.594H286.007V290.594ZM331.897 290.594V291.594C333.713 291.594 335.529 291.671 337.344 291.825L337.429 290.828L337.513 289.832C335.641 289.673 333.77 289.594 331.897 289.594V290.594ZM337.429 290.828L337.346 291.825C339.168 291.977 340.893 292.265 342.522 292.687L342.772 291.719L343.023 290.751C341.277 290.298 339.439 289.992 337.512 289.832L337.429 290.828ZM342.772 291.719L342.538 292.691C344.152 293.079 345.637 293.63 346.997 294.34L347.46 293.453L347.923 292.567C346.408 291.776 344.768 291.171 343.007 290.747L342.772 291.719ZM347.46 293.453L347.005 294.344C348.363 295.037 349.526 295.943 350.503 297.063L351.257 296.406L352.011 295.749C350.863 294.432 349.495 293.369 347.915 292.563L347.46 293.453ZM351.257 296.406L350.513 297.074C351.508 298.183 352.288 299.532 352.843 301.139L353.788 300.812L354.733 300.486C354.101 298.655 353.193 297.067 352.001 295.738L351.257 296.406ZM353.788 300.812L352.848 301.154C353.424 302.738 353.726 304.648 353.726 306.906H354.726H355.726C355.726 304.477 355.402 302.325 354.728 300.471L353.788 300.812ZM354.726 306.906H353.726C353.726 310.931 352.736 314.009 350.864 316.249L351.632 316.891L352.399 317.532C354.652 314.835 355.726 311.256 355.726 306.906H354.726ZM351.632 316.891L350.868 316.245C349.007 318.445 346.004 319.994 341.702 320.782L341.882 321.766L342.062 322.749C346.635 321.912 350.132 320.211 352.395 317.537L351.632 316.891ZM341.882 321.766L341.812 322.763C344.879 322.978 347.461 323.451 349.577 324.166L349.897 323.219L350.218 322.271C347.896 321.487 345.135 320.991 341.952 320.768L341.882 321.766ZM349.897 323.219L349.593 324.171C351.738 324.857 353.431 325.794 354.708 326.958L355.382 326.219L356.055 325.48C354.52 324.081 352.557 323.018 350.202 322.266L349.897 323.219ZM355.382 326.219L354.717 326.966C355.993 328.1 356.931 329.503 357.534 331.195L358.476 330.859L359.418 330.524C358.707 328.528 357.583 326.838 356.046 325.471L355.382 326.219ZM358.476 330.859L357.535 331.2C358.143 332.879 358.46 334.884 358.46 337.234H359.46H360.46C360.46 334.71 360.121 332.465 359.416 330.519L358.476 330.859ZM337.757 309.672H338.757C338.757 308.755 338.616 307.878 338.326 307.046L337.382 307.375L336.437 307.704C336.648 308.31 336.757 308.964 336.757 309.672H337.757ZM337.382 307.375L338.331 307.059C338.018 306.121 337.454 305.316 336.673 304.647L336.022 305.406L335.372 306.166C335.904 306.621 336.246 307.129 336.433 307.691L337.382 307.375ZM336.022 305.406L336.673 304.647C335.882 303.969 334.855 303.461 333.643 303.091L333.351 304.047L333.058 305.003C334.096 305.32 334.851 305.719 335.372 306.166L336.022 305.406ZM333.351 304.047L333.643 303.091C332.389 302.707 330.844 302.531 329.038 302.531V303.531V304.531C330.732 304.531 332.062 304.699 333.058 305.003L333.351 304.047ZM329.038 303.531V302.531H303.397V303.531V304.531H329.038V303.531ZM303.397 303.531H302.397V315.625H303.397H304.397V303.531H303.397ZM303.397 315.625V316.625H329.038V315.625V314.625H303.397V315.625ZM329.038 315.625V316.625C330.838 316.625 332.374 316.465 333.618 316.12L333.351 315.156L333.083 314.193C332.077 314.472 330.738 314.625 329.038 314.625V315.625ZM333.351 315.156L333.618 316.12C334.828 315.784 335.856 315.312 336.652 314.668L336.022 313.891L335.393 313.113C334.876 313.532 334.123 313.904 333.083 314.193L333.351 315.156ZM336.022 313.891L336.652 314.668C337.436 314.033 338.009 313.258 338.326 312.344L337.382 312.016L336.437 311.687C336.255 312.211 335.921 312.686 335.393 313.113L336.022 313.891ZM337.382 312.016L338.331 312.332C338.615 311.477 338.757 310.589 338.757 309.672H337.757H336.757C336.757 310.38 336.648 311.054 336.433 311.699L337.382 312.016ZM341.788 335.219H342.788C342.788 333.65 342.523 332.287 341.906 331.207L341.038 331.703L340.17 332.199C340.553 332.87 340.788 333.85 340.788 335.219H341.788ZM341.038 331.703L341.914 331.22C341.295 330.099 340.335 329.272 339.098 328.726L338.694 329.641L338.291 330.556C339.179 330.947 339.781 331.495 340.163 332.186L341.038 331.703ZM338.694 329.641L339.12 328.736C337.917 328.17 336.418 327.823 334.662 327.661L334.569 328.656L334.477 329.652C336.096 329.802 337.347 330.112 338.269 330.545L338.694 329.641ZM334.569 328.656L334.662 327.661C332.934 327.501 330.886 327.422 328.522 327.422V328.422V329.422C330.846 329.422 332.829 329.499 334.477 329.652L334.569 328.656ZM328.522 328.422V327.422H303.397V328.422V329.422H328.522V328.422ZM303.397 328.422H302.397V342.062H303.397H304.397V328.422H303.397ZM303.397 342.062V343.062H328.522V342.062V341.062H303.397V342.062ZM328.522 342.062V343.062C330.886 343.062 332.934 342.984 334.662 342.824L334.569 341.828L334.477 340.832C332.829 340.985 330.846 341.062 328.522 341.062V342.062ZM334.569 341.828L334.662 342.824C336.418 342.661 337.917 342.315 339.12 341.749L338.694 340.844L338.269 339.939C337.347 340.373 336.096 340.683 334.477 340.832L334.569 341.828ZM338.694 340.844L339.12 341.749C340.337 341.176 341.288 340.359 341.906 339.277L341.038 338.781L340.17 338.285C339.788 338.954 339.177 339.512 338.269 339.939L338.694 340.844ZM341.038 338.781L341.914 339.264C342.522 338.161 342.788 336.79 342.788 335.219H341.788H340.788C340.788 336.585 340.554 337.589 340.163 338.298L341.038 338.781ZM449.888 337.516L450.789 337.949L450.79 337.947L449.888 337.516ZM427.388 354.578L427.646 355.544L427.65 355.543L427.388 354.578ZM391.013 354.578L390.75 355.543L390.757 355.545L391.013 354.578ZM368.372 337.516L367.472 337.952L367.474 337.955L368.372 337.516ZM368.372 308.219L369.27 308.658L369.272 308.655L368.372 308.219ZM391.013 291.156L391.269 292.123L391.273 292.122L391.013 291.156ZM427.388 291.156L427.124 292.121L427.131 292.123L427.388 291.156ZM449.888 308.219L448.985 308.65L448.987 308.653L449.888 308.219ZM434.184 315.672L433.23 315.969L433.232 315.977L433.234 315.984L434.184 315.672ZM430.106 309.203L429.405 309.916L429.411 309.922L430.106 309.203ZM400.013 303.625L400.209 304.606L400.22 304.603L400.013 303.625ZM388.247 309.297L388.945 310.013L388.954 310.004L388.247 309.297ZM385.106 313.469L385.989 313.938L385.993 313.931L385.106 313.469ZM383.419 318.109L382.44 317.902L382.439 317.91L382.437 317.917L383.419 318.109ZM383.419 327.672L382.437 327.861L382.439 327.87L382.44 327.879L383.419 327.672ZM385.106 332.359L384.219 332.821L384.223 332.829L385.106 332.359ZM393.122 339.859L392.675 340.754L392.686 340.76L393.122 339.859ZM400.013 342.109L399.805 343.088L399.816 343.09L400.013 342.109ZM430.106 336.484L429.411 335.766L429.405 335.772L430.106 336.484ZM434.184 330.062L433.233 329.754L433.231 329.761L434.184 330.062ZM452.934 322.844H451.934C451.934 328.252 450.942 332.991 448.985 337.084L449.888 337.516L450.79 337.947C452.896 333.541 453.934 328.498 453.934 322.844H452.934ZM449.888 337.516L448.987 337.082C447.025 341.155 444.223 344.561 440.568 347.31L441.169 348.109L441.77 348.909C445.677 345.97 448.687 342.314 450.789 337.949L449.888 337.516ZM441.169 348.109L440.568 347.31C436.905 350.065 432.431 352.172 427.125 353.613L427.388 354.578L427.65 355.543C433.156 354.047 437.87 351.841 441.77 348.909L441.169 348.109ZM427.388 354.578L427.129 353.612C421.854 355.023 415.896 355.734 409.247 355.734V356.734V357.734C416.035 357.734 422.171 357.008 427.646 355.544L427.388 354.578ZM409.247 356.734V355.734C402.598 355.734 396.608 355.023 391.268 353.611L391.013 354.578L390.757 355.545C396.292 357.008 402.458 357.734 409.247 357.734V356.734ZM391.013 354.578L391.275 353.613C385.968 352.172 381.478 350.064 377.782 347.308L377.184 348.109L376.586 348.911C380.516 351.842 385.244 354.047 390.75 355.543L391.013 354.578ZM377.184 348.109L377.782 347.308C374.096 344.558 371.262 341.15 369.27 337.076L368.372 337.516L367.474 337.955C369.607 342.318 372.648 345.973 376.586 348.911L377.184 348.109ZM368.372 337.516L369.272 337.079C367.285 332.986 366.278 328.249 366.278 322.844H365.278H364.278C364.278 328.501 365.333 333.545 367.472 337.952L368.372 337.516ZM365.278 322.844H366.278C366.278 317.438 367.286 312.718 369.27 308.658L368.372 308.219L367.474 307.78C365.333 312.157 364.278 317.187 364.278 322.844H365.278ZM368.372 308.219L369.272 308.655C371.264 304.55 374.097 301.128 377.782 298.38L377.184 297.578L376.586 296.777C372.647 299.715 369.605 303.387 367.472 307.782L368.372 308.219ZM377.184 297.578L377.782 298.38C381.476 295.624 385.965 293.533 391.269 292.123L391.013 291.156L390.756 290.19C385.247 291.654 380.517 293.844 376.586 296.777L377.184 297.578ZM391.013 291.156L391.273 292.122C396.611 290.68 402.6 289.953 409.247 289.953V288.953V287.953C402.456 287.953 396.289 288.695 390.752 290.191L391.013 291.156ZM409.247 288.953V289.953C415.894 289.953 421.85 290.68 427.124 292.121L427.388 291.156L427.651 290.192C422.175 288.695 416.037 287.953 409.247 287.953V288.953ZM427.388 291.156L427.131 292.123C432.435 293.533 436.906 295.624 440.568 298.377L441.169 297.578L441.77 296.779C437.869 293.845 433.153 291.654 427.644 290.19L427.388 291.156ZM441.169 297.578L440.568 298.377C444.221 301.125 447.024 304.546 448.985 308.65L449.888 308.219L450.79 307.788C448.689 303.392 445.679 299.719 441.77 296.779L441.169 297.578ZM449.888 308.219L448.987 308.653C450.942 312.714 451.934 317.436 451.934 322.844H452.934H453.934C453.934 317.189 452.896 312.161 450.789 307.785L449.888 308.219ZM435.356 322.844H436.356C436.356 320.327 435.947 317.831 435.134 315.359L434.184 315.672L433.234 315.984C433.984 318.262 434.356 320.548 434.356 322.844H435.356ZM434.184 315.672L435.139 315.374C434.335 312.795 432.88 310.497 430.802 308.485L430.106 309.203L429.411 309.922C431.27 311.722 432.534 313.737 433.23 315.969L434.184 315.672ZM430.106 309.203L430.808 308.49C428.738 306.454 425.941 304.841 422.469 303.619L422.138 304.562L421.806 305.506C425.084 306.659 427.6 308.14 429.405 309.916L430.106 309.203ZM422.138 304.562L422.469 303.619C418.951 302.381 414.532 301.781 409.247 301.781V302.781V303.781C414.4 303.781 418.574 304.369 421.806 305.506L422.138 304.562ZM409.247 302.781V301.781C405.696 301.781 402.546 302.066 399.805 302.647L400.013 303.625L400.22 304.603C402.792 304.059 405.798 303.781 409.247 303.781V302.781ZM400.013 303.625L399.816 302.644C397.094 303.189 394.709 303.964 392.675 304.981L393.122 305.875L393.569 306.769C395.41 305.849 397.619 305.124 400.209 304.606L400.013 303.625ZM393.122 305.875L392.675 304.981C390.657 305.99 388.94 307.19 387.54 308.59L388.247 309.297L388.954 310.004C390.179 308.779 391.712 307.698 393.569 306.769L393.122 305.875ZM388.247 309.297L387.548 308.581C386.166 309.93 385.054 311.405 384.219 313.007L385.106 313.469L385.993 313.931C386.721 312.532 387.702 311.226 388.945 310.012L388.247 309.297ZM385.106 313.469L384.223 312.999C383.398 314.55 382.804 316.186 382.44 317.902L383.419 318.109L384.397 318.316C384.721 316.783 385.252 315.325 385.989 313.938L385.106 313.469ZM383.419 318.109L382.437 317.917C382.113 319.572 381.95 321.214 381.95 322.844H382.95H383.95C383.95 321.348 384.1 319.835 384.4 318.302L383.419 318.109ZM382.95 322.844H381.95C381.95 324.503 382.113 326.176 382.437 327.861L383.419 327.672L384.401 327.483C384.1 325.918 383.95 324.372 383.95 322.844H382.95ZM383.419 327.672L382.44 327.879C382.803 329.594 383.397 331.242 384.219 332.821L385.106 332.359L385.993 331.897C385.253 330.476 384.722 329 384.397 327.465L383.419 327.672ZM385.106 332.359L384.223 332.829C385.058 334.398 386.17 335.854 387.548 337.2L388.247 336.484L388.945 335.769C387.699 334.552 386.717 333.259 385.989 331.89L385.106 332.359ZM388.247 336.484L387.548 337.2C388.947 338.565 390.661 339.747 392.675 340.754L393.122 339.859L393.569 338.965C391.708 338.034 390.172 336.966 388.945 335.769L388.247 336.484ZM393.122 339.859L392.686 340.76C394.713 341.74 397.09 342.513 399.805 343.088L400.013 342.109L400.22 341.131C397.623 340.581 395.406 339.854 393.557 338.959L393.122 339.859ZM400.013 342.109L399.816 343.09C402.553 343.637 405.699 343.906 409.247 343.906V342.906V341.906C405.795 341.906 402.785 341.644 400.209 341.129L400.013 342.109ZM409.247 342.906V343.906C414.532 343.906 418.951 343.306 422.469 342.068L422.138 341.125L421.806 340.182C418.574 341.319 414.4 341.906 409.247 341.906V342.906ZM422.138 341.125L422.469 342.068C425.941 340.847 428.738 339.234 430.808 337.197L430.106 336.484L429.405 335.772C427.6 337.548 425.084 339.028 421.806 340.182L422.138 341.125ZM430.106 336.484L430.802 337.203C432.878 335.193 434.333 332.912 435.138 330.364L434.184 330.062L433.231 329.761C432.536 331.963 431.272 333.963 429.411 335.766L430.106 336.484ZM434.184 330.062L435.135 330.371C435.947 327.87 436.356 325.36 436.356 322.844H435.356H434.356C434.356 325.14 433.984 327.442 433.233 329.754L434.184 330.062ZM524.378 355H523.378V356H524.378V355ZM523.768 312.391L522.789 312.593L522.789 312.596L523.768 312.391ZM521.471 307.375L520.682 307.989L520.689 307.999L520.697 308.008L521.471 307.375ZM516.831 304.141L516.462 305.07L516.471 305.074L516.479 305.077L516.831 304.141ZM501.69 303.953L501.924 304.925L501.933 304.923L501.69 303.953ZM486.596 310.188L486.082 309.33L486.077 309.333L486.596 310.188ZM480.409 314.594L479.763 313.83L479.409 314.129V314.594H480.409ZM480.409 355V356H481.409V355H480.409ZM463.018 355H462.018V356H463.018V355ZM463.018 290.594V289.594H462.018V290.594H463.018ZM480.409 290.594H481.409V289.594H480.409V290.594ZM480.409 299.406H479.409V301.129L480.905 300.274L480.409 299.406ZM487.393 295.703L487.836 296.6L487.845 296.595L487.393 295.703ZM525.643 290.547L525.345 291.502L525.356 291.505L525.643 290.547ZM534.362 295L533.73 295.775L533.736 295.78L534.362 295ZM539.799 301.984L538.889 302.398L538.895 302.411L539.799 301.984ZM541.721 355V356H542.721V355H541.721ZM524.378 355H525.378V318.906H524.378H523.378V355H524.378ZM524.378 318.906H525.378C525.378 316.445 525.17 314.203 524.747 312.185L523.768 312.391L522.789 312.596C523.179 314.453 523.378 316.555 523.378 318.906H524.378ZM523.768 312.391L524.747 312.189C524.313 310.083 523.485 308.257 522.245 306.742L521.471 307.375L520.697 308.008C521.707 309.243 522.411 310.761 522.789 312.593L523.768 312.391ZM521.471 307.375L522.261 306.761C521.033 305.182 519.32 304.006 517.182 303.204L516.831 304.141L516.479 305.077C518.341 305.775 519.722 306.755 520.682 307.989L521.471 307.375ZM516.831 304.141L517.199 303.211C515.071 302.367 512.387 301.969 509.19 301.969V302.969V303.969C512.243 303.969 514.652 304.352 516.462 305.07L516.831 304.141ZM509.19 302.969V301.969C506.723 301.969 504.141 302.31 501.447 302.983L501.69 303.953L501.933 304.923C504.489 304.284 506.907 303.969 509.19 303.969V302.969ZM501.69 303.953L501.456 302.981C498.809 303.619 496.181 304.479 493.573 305.561L493.956 306.484L494.339 307.408C496.855 306.365 499.383 305.538 501.924 304.925L501.69 303.953ZM493.956 306.484L493.573 305.561C490.965 306.642 488.468 307.898 486.082 309.33L486.596 310.188L487.111 311.045C489.412 309.664 491.821 308.452 494.339 307.408L493.956 306.484ZM486.596 310.188L486.077 309.333C483.726 310.763 481.62 312.261 479.763 313.83L480.409 314.594L481.054 315.358C482.822 313.864 484.842 312.425 487.116 311.042L486.596 310.188ZM480.409 314.594H479.409V355H480.409H481.409V314.594H480.409ZM480.409 355V354H463.018V355V356H480.409V355ZM463.018 355H464.018V290.594H463.018H462.018V355H463.018ZM463.018 290.594V291.594H480.409V290.594V289.594H463.018V290.594ZM480.409 290.594H479.409V299.406H480.409H481.409V290.594H480.409ZM480.409 299.406L480.905 300.274C483.073 299.035 485.384 297.81 487.836 296.6L487.393 295.703L486.95 294.806C484.465 296.033 482.119 297.277 479.913 298.538L480.409 299.406ZM487.393 295.703L487.845 296.595C490.274 295.365 492.861 294.256 495.606 293.269L495.268 292.328L494.93 291.387C492.112 292.4 489.449 293.541 486.941 294.811L487.393 295.703ZM495.268 292.328L495.606 293.269C498.338 292.287 501.243 291.487 504.324 290.871L504.128 289.891L503.931 288.91C500.762 289.544 497.761 290.369 494.93 291.387L495.268 292.328ZM504.128 289.891L504.324 290.871C507.379 290.26 510.609 289.953 514.018 289.953V288.953V287.953C510.489 287.953 507.126 288.271 503.931 288.91L504.128 289.891ZM514.018 288.953V289.953C518.282 289.953 522.054 290.475 525.345 291.502L525.643 290.547L525.941 289.592C522.42 288.494 518.442 287.953 514.018 287.953V288.953ZM525.643 290.547L525.356 291.505C528.689 292.505 531.472 293.933 533.73 295.775L534.362 295L534.994 294.225C532.501 292.192 529.473 290.652 525.93 289.589L525.643 290.547ZM534.362 295L533.736 295.78C535.99 297.589 537.704 299.792 538.889 302.398L539.799 301.984L540.71 301.571C539.394 298.677 537.484 296.224 534.988 294.22L534.362 295ZM539.799 301.984L538.895 302.411C540.106 304.981 540.721 307.879 540.721 311.125H541.721H542.721C542.721 307.621 542.055 304.426 540.704 301.558L539.799 301.984ZM541.721 311.125H540.721V355H541.721H542.721V311.125H541.721ZM541.721 355V354H524.378V355V356H541.721V355Z" fill="#FFFEFE" mask="url(#path-4-outside-1_22_39)"/>
<defs>
<radialGradient id="paint0_radial_22_39" cx="0" cy="0" r="1" gradientUnits="userSpaceOnUse" gradientTransform="translate(352.48 54.942) rotate(98.4526) scale(191.662 182.7)">
<stop stop-color="#5B979D"/>
<stop offset="0.9375" stop-color="#203537"/>
</radialGradient>
<radialGradient id="paint1_radial_22_39" cx="0" cy="0" r="1" gradientUnits="userSpaceOnUse" gradientTransform="translate(214.101 68.2959) rotate(103.898) scale(203.152 310.56)">
<stop stop-color="#5B979D"/>
<stop offset="0.9375" stop-color="#203537"/>
</radialGradient>
<radialGradient id="paint2_radial_22_39" cx="0" cy="0" r="1" gradientUnits="userSpaceOnUse" gradientTransform="translate(314.794 86.5486) rotate(103.036) scale(54.4893 78.5033)">
<stop stop-color="#5B979D"/>
<stop offset="0.9375" stop-color="#203537"/>
</radialGradient>
</defs>
</svg>
