<svg width="637" height="203" viewBox="0 0 637 203" fill="none" xmlns="http://www.w3.org/2000/svg">
<path d="M249.394 185.292C249.943 186.006 250.901 186.267 251.729 185.913C264.742 180.339 278.607 170.698 287.943 160.213C297.617 149.349 304.708 136.397 308.676 122.344C312.645 108.291 313.386 93.5077 310.844 79.1213C308.301 64.7348 302.541 51.1249 294.004 39.3288C285.467 27.5328 274.377 17.8621 261.581 11.0539C248.784 4.24569 234.618 0.479662 220.163 0.0428895C205.707 -0.393883 191.344 2.51013 178.168 8.53358C165.589 14.2837 154.409 22.7317 145.4 33.2817C144.688 34.1156 144.808 35.3668 145.649 36.0702L156.206 44.8971C157.059 45.6108 158.329 45.4888 159.056 44.6466C166.342 36.2053 175.344 29.4394 185.457 24.8163C196.18 19.9142 207.87 17.5508 219.634 17.9062C231.399 18.2617 242.927 21.3267 253.342 26.8675C263.756 32.4083 272.781 40.2787 279.729 49.8787C286.677 59.4788 291.365 70.5551 293.434 82.2634C295.503 93.9717 294.9 106.003 291.67 117.44C288.44 128.877 282.669 139.418 274.797 148.259C267.484 156.471 253.431 167.367 242.721 172.44C241.527 173.006 241.119 174.534 241.924 175.581L249.394 185.292Z" fill="url(#paint0_radial_10_28)"/>
<path d="M1.64163 13C-1.85835 29 6.14155 40 19.1416 45L72.3236 51.5L118.324 58.5L17 46.6055C18.093 62.3148 22.1851 68.7883 35 76.6055L129.823 87L38.3235 79.5C38.541 94.2961 42.185 100.698 55.3236 108.5L144.823 119L111.324 117C118.633 135.826 131.823 157.5 156.823 171C145.833 176.945 138.421 186.352 133.823 197C171.865 166.882 220.823 166 255.323 202.5C247.323 183 233.641 160.954 194.323 159C186.266 142.452 186.038 133.722 192.323 119C205.909 96.3937 227.888 93.9514 245.323 110C231.78 72.9301 191.323 75 174.323 104.5C172.778 59.0519 146.824 31.5 105.824 26L1.64163 13Z" fill="url(#paint1_radial_10_28)" stroke="white"/>
<path d="M172.823 67.5002C193.103 49.1279 220.823 50 237.823 69.5C246.323 81.5001 247.323 91.5 245.323 106.5C234.289 81.1605 208.823 73.5001 185.823 81.5001L178.823 84.5C178.079 77.196 176.53 73.5704 172.823 67.5002Z" fill="url(#paint2_radial_10_28)"/>
<path d="M400.719 90V63.1406H356.469V90H339.078V25.5938H356.469V49.0312H400.719V25.5938H418.109V90H400.719ZM484.235 90V83.6719C482.016 84.8906 479.626 85.9688 477.063 86.9062C474.532 87.8438 471.891 88.6406 469.141 89.2969C466.391 89.9531 463.548 90.4375 460.61 90.75C457.704 91.0938 454.766 91.2656 451.798 91.2656C448.329 91.2656 444.969 90.9375 441.719 90.2812C438.501 89.625 435.641 88.5625 433.141 87.0938C430.641 85.625 428.626 83.7031 427.094 81.3281C425.594 78.9531 424.844 76.0469 424.844 72.6094C424.844 68.2656 426.032 64.6562 428.407 61.7812C430.782 58.875 434.407 56.5 439.282 54.6562C444.157 52.8125 450.313 51.3906 457.751 50.3906C465.219 49.3906 474.048 48.6094 484.235 48.0469V46.6875C484.235 45.625 483.954 44.5781 483.391 43.5469C482.829 42.4844 481.798 41.5625 480.298 40.7812C478.829 39.9688 476.798 39.3125 474.204 38.8125C471.641 38.3125 468.36 38.0625 464.36 38.0625C461.204 38.0625 458.079 38.2344 454.985 38.5781C451.923 38.8906 448.954 39.3281 446.079 39.8906C443.235 40.4531 440.532 41.1094 437.969 41.8594C435.407 42.6094 433.079 43.3906 430.985 44.2031V28.7344C433.173 28.1719 435.626 27.625 438.344 27.0938C441.063 26.5625 443.891 26.1094 446.829 25.7344C449.766 25.3281 452.735 25.0156 455.735 24.7969C458.735 24.5469 461.61 24.4219 464.36 24.4219C469.766 24.4219 474.751 24.875 479.313 25.7812C483.876 26.6563 487.798 28.0312 491.079 29.9062C494.391 31.7812 496.969 34.1562 498.813 37.0312C500.688 39.9062 501.626 43.3281 501.626 47.2969V90H484.235ZM484.235 60.6094C477.548 60.8594 471.86 61.2188 467.173 61.6875C462.516 62.1562 458.641 62.7031 455.548 63.3281C452.454 63.9531 450.016 64.625 448.235 65.3438C446.485 66.0625 445.173 66.7969 444.298 67.5469C443.423 68.2969 442.876 69.0469 442.657 69.7969C442.469 70.5469 442.376 71.2344 442.376 71.8594C442.376 72.6094 442.579 73.3438 442.985 74.0625C443.391 74.75 444.094 75.3594 445.094 75.8906C446.126 76.4219 447.485 76.8438 449.173 77.1562C450.86 77.4688 452.985 77.625 455.548 77.625C458.391 77.625 461.173 77.4062 463.891 76.9688C466.61 76.5312 469.188 75.9375 471.626 75.1875C474.063 74.4062 476.344 73.5 478.469 72.4688C480.626 71.4062 482.548 70.2812 484.235 69.0938V60.6094ZM572.111 40.1719C571.642 40.0156 570.954 39.8125 570.048 39.5625C569.173 39.2812 568.142 39.0156 566.954 38.7656C565.767 38.4844 564.454 38.25 563.017 38.0625C561.611 37.875 560.158 37.7812 558.658 37.7812C555.533 37.7812 552.611 38.1719 549.892 38.9531C547.204 39.7031 544.689 40.7188 542.345 42C540.001 43.25 537.814 44.6875 535.783 46.3125C533.783 47.9062 531.939 49.5469 530.251 51.2344V90H512.861V25.5938H530.251V36.0469C532.345 34.4844 534.486 32.9844 536.673 31.5469C538.892 30.0781 541.189 28.7812 543.564 27.6562C545.97 26.5312 548.501 25.6406 551.158 24.9844C553.814 24.2969 556.626 23.9531 559.595 23.9531C560.72 23.9531 561.861 24.0156 563.017 24.1406C564.204 24.2344 565.345 24.3594 566.439 24.5156C567.564 24.6719 568.611 24.8438 569.579 25.0312C570.548 25.2188 571.392 25.4062 572.111 25.5938V40.1719ZM580.293 90V25.5938H597.684V90H580.293ZM412.531 145.234C412.531 147.734 412.203 149.906 411.547 151.75C410.891 153.594 409.969 155.188 408.781 156.531C407.625 157.844 406.219 158.922 404.562 159.766C402.938 160.578 401.125 161.234 399.125 161.734C397.156 162.203 395.047 162.531 392.797 162.719C390.547 162.906 388.219 163 385.812 163H339.078V98.5938H384.969C386.812 98.5938 388.656 98.6719 390.5 98.8281C392.375 98.9844 394.156 99.2812 395.844 99.7188C397.531 100.125 399.094 100.703 400.531 101.453C402 102.203 403.266 103.188 404.328 104.406C405.422 105.625 406.266 107.094 406.859 108.812C407.484 110.531 407.797 112.562 407.797 114.906C407.797 119.094 406.766 122.422 404.703 124.891C402.641 127.328 399.391 128.953 394.953 129.766C398.078 129.984 400.75 130.469 402.969 131.219C405.219 131.938 407.047 132.938 408.453 134.219C409.859 135.469 410.891 137.016 411.547 138.859C412.203 140.672 412.531 142.797 412.531 145.234ZM390.828 117.672C390.828 116.859 390.703 116.094 390.453 115.375C390.203 114.625 389.75 113.969 389.094 113.406C388.438 112.844 387.547 112.391 386.422 112.047C385.297 111.703 383.859 111.531 382.109 111.531H356.469V123.625H382.109C383.859 123.625 385.297 123.469 386.422 123.156C387.547 122.844 388.438 122.422 389.094 121.891C389.75 121.359 390.203 120.734 390.453 120.016C390.703 119.266 390.828 118.484 390.828 117.672ZM394.859 143.219C394.859 141.75 394.609 140.578 394.109 139.703C393.609 138.797 392.828 138.109 391.766 137.641C390.703 137.141 389.328 136.812 387.641 136.656C385.953 136.5 383.938 136.422 381.594 136.422H356.469V150.062H381.594C383.938 150.062 385.953 149.984 387.641 149.828C389.328 149.672 390.703 149.344 391.766 148.844C392.828 148.344 393.609 147.656 394.109 146.781C394.609 145.875 394.859 144.688 394.859 143.219ZM506.006 130.844C506.006 136.375 504.99 141.266 502.959 145.516C500.927 149.734 498.021 153.266 494.24 156.109C490.459 158.953 485.865 161.109 480.459 162.578C475.084 164.016 469.037 164.734 462.318 164.734C455.599 164.734 449.521 164.016 444.084 162.578C438.677 161.109 434.068 158.953 430.256 156.109C426.443 153.266 423.506 149.734 421.443 145.516C419.381 141.266 418.349 136.375 418.349 130.844C418.349 125.312 419.381 120.438 421.443 116.219C423.506 111.969 426.443 108.422 430.256 105.578C434.068 102.734 438.677 100.594 444.084 99.1562C449.521 97.6875 455.599 96.9531 462.318 96.9531C469.037 96.9531 475.084 97.6875 480.459 99.1562C485.865 100.594 490.459 102.734 494.24 105.578C498.021 108.422 500.927 111.969 502.959 116.219C504.99 120.438 506.006 125.312 506.006 130.844ZM488.427 130.844C488.427 128.438 488.037 126.047 487.256 123.672C486.506 121.266 485.146 119.109 483.177 117.203C481.24 115.297 478.584 113.75 475.209 112.562C471.834 111.375 467.537 110.781 462.318 110.781C458.818 110.781 455.74 111.062 453.084 111.625C450.427 112.156 448.131 112.906 446.193 113.875C444.256 114.844 442.631 115.984 441.318 117.297C440.006 118.578 438.959 119.969 438.177 121.469C437.396 122.938 436.834 124.484 436.49 126.109C436.177 127.703 436.021 129.281 436.021 130.844C436.021 132.438 436.177 134.047 436.49 135.672C436.834 137.297 437.396 138.859 438.177 140.359C438.959 141.828 440.006 143.203 441.318 144.484C442.631 145.766 444.256 146.891 446.193 147.859C448.131 148.797 450.427 149.547 453.084 150.109C455.74 150.641 458.818 150.906 462.318 150.906C467.537 150.906 471.834 150.312 475.209 149.125C478.584 147.938 481.24 146.391 483.177 144.484C485.146 142.578 486.506 140.438 487.256 138.062C488.037 135.656 488.427 133.25 488.427 130.844ZM577.449 163V126.906C577.449 124.5 577.246 122.328 576.839 120.391C576.433 118.422 575.667 116.75 574.542 115.375C573.449 113.969 571.902 112.891 569.902 112.141C567.933 111.359 565.386 110.969 562.261 110.969C559.886 110.969 557.386 111.297 554.761 111.953C552.167 112.578 549.589 113.422 547.027 114.484C544.464 115.547 542.011 116.781 539.667 118.188C537.355 119.594 535.292 121.062 533.48 122.594V163H516.089V98.5938H533.48V107.406C535.667 106.156 537.996 104.922 540.464 103.703C542.933 102.453 545.558 101.328 548.339 100.328C551.121 99.3281 554.074 98.5156 557.199 97.8906C560.324 97.2656 563.621 96.9531 567.089 96.9531C571.433 96.9531 575.308 97.4844 578.714 98.5469C582.152 99.5781 585.058 101.062 587.433 103C589.808 104.906 591.621 107.234 592.871 109.984C594.152 112.703 594.792 115.75 594.792 119.125V163H577.449Z" fill="#203537"/>
<defs>
<radialGradient id="paint0_radial_10_28" cx="0" cy="0" r="1" gradientUnits="userSpaceOnUse" gradientTransform="translate(246.015 41.9049) rotate(98.4526) scale(146.183 139.348)">
<stop stop-color="#5B979D"/>
<stop offset="0.9375" stop-color="#203537"/>
</radialGradient>
<radialGradient id="paint1_radial_10_28" cx="0" cy="0" r="1" gradientUnits="userSpaceOnUse" gradientTransform="translate(140.472 52.0901) rotate(103.898) scale(154.946 236.867)">
<stop stop-color="#5B979D"/>
<stop offset="0.9375" stop-color="#203537"/>
</radialGradient>
<radialGradient id="paint2_radial_10_28" cx="0" cy="0" r="1" gradientUnits="userSpaceOnUse" gradientTransform="translate(217.272 66.0116) rotate(103.036) scale(41.5596 59.8754)">
<stop stop-color="#5B979D"/>
<stop offset="0.9375" stop-color="#203537"/>
</radialGradient>
</defs>
</svg>
